<?xml version="1.0" encoding="UTF-8" standalone="no"?>
<!-- Created with Inkscape (http://www.inkscape.org/) -->

<svg
   xmlns:dc="http://purl.org/dc/elements/1.1/"
   xmlns:cc="http://creativecommons.org/ns#"
   xmlns:rdf="http://www.w3.org/1999/02/22-rdf-syntax-ns#"
   xmlns:svg="http://www.w3.org/2000/svg"
   xmlns="http://www.w3.org/2000/svg"
   xmlns:xlink="http://www.w3.org/1999/xlink"
   xmlns:sodipodi="http://sodipodi.sourceforge.net/DTD/sodipodi-0.dtd"
   xmlns:inkscape="http://www.inkscape.org/namespaces/inkscape"
   width="1024"
   height="1024"
   id="svg3361"
   version="1.1"
   inkscape:version="0.48.3.1 r9886"
   sodipodi:docname="Engine.svg"
   inkscape:export-filename="/home/nick/Box/3D Model/C-130/Engine.png"
   inkscape:export-xdpi="180"
   inkscape:export-ydpi="180">
  <defs
     id="defs3363" />
  <sodipodi:namedview
     id="base"
     pagecolor="#9fa9b4"
     bordercolor="#666666"
     borderopacity="1.0"
     inkscape:pageopacity="1"
     inkscape:pageshadow="2"
     inkscape:zoom="1.0040113"
     inkscape:cx="609.18134"
     inkscape:cy="225.86049"
     inkscape:document-units="px"
     inkscape:current-layer="layer2"
     showgrid="false"
     inkscape:window-width="1920"
     inkscape:window-height="1056"
     inkscape:window-x="0"
     inkscape:window-y="24"
     inkscape:window-maximized="1"
     inkscape:snap-page="false"
     inkscape:object-nodes="true"
     inkscape:object-paths="true"
     inkscape:snap-global="true" />
  <metadata
     id="metadata3366">
    <rdf:RDF>
      <cc:Work
         rdf:about="">
        <dc:format>image/svg+xml</dc:format>
        <dc:type
           rdf:resource="http://purl.org/dc/dcmitype/StillImage" />
        <dc:title></dc:title>
      </cc:Work>
    </rdf:RDF>
  </metadata>
  <g
     inkscape:groupmode="layer"
     id="layer3"
     inkscape:label="Layer"
     sodipodi:insensitive="true"
     style="display:inline">
    <path
       sodipodi:type="arc"
       style="fill:#201c1a;fill-opacity:1;stroke:none"
       id="path3909"
       sodipodi:cx="107.3287"
       sodipodi:cy="216.63557"
       sodipodi:rx="96.974648"
       sodipodi:ry="96.974648"
       d="m 204.30334,216.63557 a 96.974648,96.974648 0 1 1 -193.94929,0 96.974648,96.974648 0 1 1 193.94929,0 z" />
  </g>
  <g
     inkscape:label="UVs"
     inkscape:groupmode="layer"
     id="layer1"
     transform="translate(0,-28.362183)"
     sodipodi:insensitive="true"
     style="display:none">
    <image
       y="28.362183"
       x="0"
       id="image3745"
       xlink:href="file:///home/nick/Box/3D%20Model/C-130/Engine%20UVs.png"
       height="1024"
       width="1024" />
  </g>
  <g
     inkscape:groupmode="layer"
     id="layer2"
     inkscape:label="Colors">
    <path
       style="fill:#f4f4f4;fill-opacity:1;stroke:none"
       d="m 100.71429,773.64286 -11.785718,4.28571 c 0,0 17.558198,60.35714 67.857138,60.35714 l 0,-11.07142 c -14.6472,0 -35,-5 -56.07142,-53.57143 z"
       id="path3757"
       inkscape:connector-curvature="0"
       sodipodi:nodetypes="ccccc" />
    <use
       x="0"
       y="0"
       xlink:href="#path3757"
       id="use3759"
       transform="matrix(-1,0,0,1,313.57142,0)"
       width="1024"
       height="1024" />
    <g
       id="g3769">
      <path
         sodipodi:nodetypes="ccc"
         inkscape:connector-curvature="0"
         id="path3761"
         d="m 156.93221,772.97709 c -33.84011,0 -62.482947,-19.44543 -62.482947,-19.44543 0,0 12.692457,73.68263 62.482947,73.68263"
         style="fill:#de000d;fill-opacity:1;stroke:none" />
      <use
         height="1024"
         width="1024"
         transform="matrix(-1,0,0,1,313.86442,0)"
         id="use3765"
         xlink:href="#path3761"
         y="0"
         x="0" />
    </g>
    <rect
       style="fill:#de000d;fill-opacity:1;stroke:none"
       id="rect3767"
       width="18.571428"
       height="9.8214283"
       x="147.6465"
       y="822.75" />
    <path
       style="fill:none;stroke:#4c5156"
       d="m 1005.1018,568.4212 c -78.79192,24.24366 -76.77161,130.30968 -76.77161,130.30968"
       id="path3775"
       inkscape:connector-curvature="0"
       sodipodi:nodetypes="cc" />
    <use
       x="0"
       y="0"
       xlink:href="#path3775"
       id="use3777"
       transform="matrix(1,0,0,-1,0,1397.4618)"
       width="1024"
       height="1024" />
    <path
       style="fill:none;stroke:#4c5156;stroke-width:1;stroke-linecap:round;stroke-linejoin:round;stroke-miterlimit:4;stroke-opacity:1;stroke-dasharray:none;stroke-dashoffset:0"
       d="m 407.09148,1006.8274 c 0,0 12.12183,-25.25381 32.32488,-55.55838 20.20305,-30.30458 121.2183,-145.46197 121.2183,-251.52799"
       id="path3779"
       inkscape:connector-curvature="0" />
    <path
       inkscape:connector-curvature="0"
       id="path3781"
       d="m 407.09148,392.65466 c 0,0 12.12183,25.25381 32.32488,55.55838 20.20305,30.30458 121.2183,145.46197 121.2183,251.52799"
       style="fill:none;stroke:#4c5156;stroke-width:1;stroke-linecap:round;stroke-linejoin:round;stroke-miterlimit:4;stroke-opacity:1;stroke-dasharray:none;stroke-dashoffset:0" />
    <path
       style="fill:none;stroke:#4c5156;stroke-width:1;stroke-linecap:round;stroke-linejoin:round;stroke-miterlimit:4;stroke-opacity:1;stroke-dasharray:none;stroke-dashoffset:0"
       d="M 436.42857,951.14286 C 718.11524,948.59872 833.2107,973.0119 981.58343,818.09972"
       id="path3783"
       inkscape:connector-curvature="0"
       sodipodi:nodetypes="cc" />
    <path
       style="fill:none;stroke:#4c5156;stroke-width:1;stroke-linecap:round;stroke-linejoin:round;stroke-miterlimit:4;stroke-opacity:1;stroke-dasharray:none;stroke-dashoffset:0"
       d="m 413,738.85714 c 4.53825,19.95667 -2.50587,16.94669 12.45727,43.58345 14.96313,26.63676 51.93352,82.92025 67.72919,94.18464"
       id="path3787"
       inkscape:connector-curvature="0"
       sodipodi:nodetypes="csc" />
    <path
       style="fill:none;stroke:#4c5156;stroke-width:1;stroke-linecap:round;stroke-linejoin:round;stroke-miterlimit:4;stroke-opacity:1;stroke-dasharray:none;stroke-dashoffset:0"
       d="M 469.64286,700.60714 C 458.92857,657.75 438.32985,662.85068 414.70064,662.17534 391.07143,661.5 382.85714,656.67857 356.78571,700.60714"
       id="path3791"
       inkscape:connector-curvature="0"
       sodipodi:nodetypes="csc" />
    <path
       sodipodi:nodetypes="csc"
       inkscape:connector-curvature="0"
       id="path3793"
       d="m 469.64286,700.60714 c -10.71429,42.85714 -31.31301,37.75646 -54.94222,38.4318 -23.62921,0.67534 -31.8435,5.49677 -57.91493,-38.4318"
       style="fill:none;stroke:#4c5156;stroke-width:1;stroke-linecap:round;stroke-linejoin:round;stroke-miterlimit:4;stroke-opacity:1;stroke-dasharray:none;stroke-dashoffset:0" />
    <path
       sodipodi:nodetypes="cc"
       inkscape:connector-curvature="0"
       id="path3795"
       d="m 438.06039,446.16843 c 281.68667,2.54414 396.78213,-21.86904 545.15486,133.04314"
       style="fill:none;stroke:#4c5156;stroke-width:1;stroke-linecap:round;stroke-linejoin:round;stroke-miterlimit:4;stroke-opacity:1;stroke-dasharray:none;stroke-dashoffset:0" />
    <use
       x="0"
       y="0"
       xlink:href="#path3787"
       id="use3797"
       transform="matrix(1,0,0,-1,-0.12917364,1400.9717)"
       width="1024"
       height="1024" />
    <g
       id="g3807">
      <path
         inkscape:connector-curvature="0"
         id="path3799"
         d="m 505.7099,950.95379 0,55.90331"
         style="fill:none;stroke:#4c5156;stroke-width:1;stroke-linecap:round;stroke-linejoin:round;stroke-miterlimit:4;stroke-opacity:1;stroke-dasharray:none;stroke-dashoffset:0" />
      <path
         style="fill:none;stroke:#4c5156;stroke-width:1;stroke-linecap:round;stroke-linejoin:round;stroke-miterlimit:4;stroke-opacity:1;stroke-dasharray:none;stroke-dashoffset:0"
         d="m 562.13847,950.95379 0,55.90331"
         id="path3801"
         inkscape:connector-curvature="0" />
      <path
         inkscape:connector-curvature="0"
         id="path3803"
         d="m 633.56704,950.95379 0,55.90331"
         style="fill:none;stroke:#4c5156;stroke-width:1;stroke-linecap:round;stroke-linejoin:round;stroke-miterlimit:4;stroke-opacity:1;stroke-dasharray:none;stroke-dashoffset:0" />
      <path
         style="fill:none;stroke:#4c5156;stroke-width:1;stroke-linecap:round;stroke-linejoin:round;stroke-miterlimit:4;stroke-opacity:1;stroke-dasharray:none;stroke-dashoffset:0"
         d="m 687.13847,950.95379 0,55.90331"
         id="path3805"
         inkscape:connector-curvature="0" />
    </g>
    <g
       id="g3813">
      <path
         style="fill:none;stroke:#4c5156;stroke-width:1;stroke-linecap:round;stroke-linejoin:round;stroke-miterlimit:4;stroke-opacity:1;stroke-dasharray:none;stroke-dashoffset:0"
         d="m 505.7099,950.95379 0,55.90331"
         id="path3815"
         inkscape:connector-curvature="0" />
      <path
         inkscape:connector-curvature="0"
         id="path3817"
         d="m 562.13847,950.95379 0,55.90331"
         style="fill:none;stroke:#4c5156;stroke-width:1;stroke-linecap:round;stroke-linejoin:round;stroke-miterlimit:4;stroke-opacity:1;stroke-dasharray:none;stroke-dashoffset:0" />
      <path
         style="fill:none;stroke:#4c5156;stroke-width:1;stroke-linecap:round;stroke-linejoin:round;stroke-miterlimit:4;stroke-opacity:1;stroke-dasharray:none;stroke-dashoffset:0"
         d="m 633.56704,950.95379 0,55.90331"
         id="path3819"
         inkscape:connector-curvature="0" />
      <path
         inkscape:connector-curvature="0"
         id="path3821"
         d="m 687.13847,950.95379 0,55.90331"
         style="fill:none;stroke:#4c5156;stroke-width:1;stroke-linecap:round;stroke-linejoin:round;stroke-miterlimit:4;stroke-opacity:1;stroke-dasharray:none;stroke-dashoffset:0" />
    </g>
    <g
       id="g3823"
       transform="translate(0,-561.13974)">
      <path
         inkscape:connector-curvature="0"
         id="path3825"
         d="m 505.7099,950.95379 0,55.90331"
         style="fill:none;stroke:#4c5156;stroke-width:1;stroke-linecap:round;stroke-linejoin:round;stroke-miterlimit:4;stroke-opacity:1;stroke-dasharray:none;stroke-dashoffset:0" />
      <path
         style="fill:none;stroke:#4c5156;stroke-width:1;stroke-linecap:round;stroke-linejoin:round;stroke-miterlimit:4;stroke-opacity:1;stroke-dasharray:none;stroke-dashoffset:0"
         d="m 562.13847,950.95379 0,55.90331"
         id="path3827"
         inkscape:connector-curvature="0" />
      <path
         inkscape:connector-curvature="0"
         id="path3829"
         d="m 633.56704,950.95379 0,55.90331"
         style="fill:none;stroke:#4c5156;stroke-width:1;stroke-linecap:round;stroke-linejoin:round;stroke-miterlimit:4;stroke-opacity:1;stroke-dasharray:none;stroke-dashoffset:0" />
      <path
         style="fill:none;stroke:#4c5156;stroke-width:1;stroke-linecap:round;stroke-linejoin:round;stroke-miterlimit:4;stroke-opacity:1;stroke-dasharray:none;stroke-dashoffset:0"
         d="m 687.13847,950.95379 0,55.90331"
         id="path3831"
         inkscape:connector-curvature="0" />
    </g>
    <path
       style="fill:#9c9291;stroke:none;stroke-width:1;stroke-linecap:round;stroke-linejoin:round;stroke-miterlimit:4;stroke-opacity:1;stroke-dasharray:none;stroke-dashoffset:0"
       d="m 510.12704,791.66491 -51.01271,-35.35533 -5.05076,11.11167 3.615,3.36446 4.64286,-7.32142 45.17857,30.89285 z"
       id="path3833"
       inkscape:connector-curvature="0" />
    <path
       inkscape:connector-curvature="0"
       id="path3835"
       d="m 510.12704,607.73147 -51.01271,35.35533 -5.05076,-11.11167 3.615,-3.36446 4.64286,7.32142 L 507.5,605.03924 z"
       style="fill:#9c9291;stroke:none" />
    <g
       id="g3866">
      <rect
         transform="matrix(0.96487251,-0.26271857,0.26271857,0.96487251,0,0)"
         ry="5.3489408"
         rx="5.3489408"
         y="710.63153"
         x="-141.71892"
         height="41.946957"
         width="35.753448"
         id="rect3837"
         style="fill:none;stroke:#4c5156;stroke-width:1" />
      <path
         transform="translate(-0.89285715,-2.0535714)"
         d="m 57.321429,725.96429 a 1.0714285,1.0714285 0 1 1 -2.142858,0 1.0714285,1.0714285 0 1 1 2.142858,0 z"
         sodipodi:ry="1.0714285"
         sodipodi:rx="1.0714285"
         sodipodi:cy="725.96429"
         sodipodi:cx="56.25"
         id="path3839"
         style="fill:#9c9291;stroke:none"
         sodipodi:type="arc" />
      <path
         sodipodi:type="arc"
         style="fill:#9c9291;stroke:none"
         id="path3841"
         sodipodi:cx="56.25"
         sodipodi:cy="725.96429"
         sodipodi:rx="1.0714285"
         sodipodi:ry="1.0714285"
         d="m 57.321429,725.96429 a 1.0714285,1.0714285 0 1 1 -2.142858,0 1.0714285,1.0714285 0 1 1 2.142858,0 z"
         transform="translate(23.125,-9.0178571)" />
      <path
         transform="translate(9.1964285,33.839286)"
         d="m 57.321429,725.96429 a 1.0714285,1.0714285 0 1 1 -2.142858,0 1.0714285,1.0714285 0 1 1 2.142858,0 z"
         sodipodi:ry="1.0714285"
         sodipodi:rx="1.0714285"
         sodipodi:cy="725.96429"
         sodipodi:cx="56.25"
         id="path3843"
         style="fill:#9c9291;stroke:none"
         sodipodi:type="arc" />
      <path
         sodipodi:type="arc"
         style="fill:#9c9291;stroke:none"
         id="path3845"
         sodipodi:cx="56.25"
         sodipodi:cy="725.96429"
         sodipodi:rx="1.0714285"
         sodipodi:ry="1.0714285"
         d="m 57.321429,725.96429 a 1.0714285,1.0714285 0 1 1 -2.142858,0 1.0714285,1.0714285 0 1 1 2.142858,0 z"
         transform="translate(32.857143,27.589286)" />
      <g
         id="g3853">
        <path
           sodipodi:type="arc"
           style="fill:#9c9291;stroke:none"
           id="path3847"
           sodipodi:cx="56.25"
           sodipodi:cy="725.96429"
           sodipodi:rx="1.0714285"
           sodipodi:ry="1.0714285"
           d="m 57.321429,725.96429 a 1.0714285,1.0714285 0 1 1 -2.142858,0 1.0714285,1.0714285 0 1 1 2.142858,0 z"
           transform="translate(5.0000001,28.839286)" />
        <path
           transform="translate(-2.0535713,3.6607145)"
           d="m 57.321429,725.96429 a 1.0714285,1.0714285 0 1 1 -2.142858,0 1.0714285,1.0714285 0 1 1 2.142858,0 z"
           sodipodi:ry="1.0714285"
           sodipodi:rx="1.0714285"
           sodipodi:cy="725.96429"
           sodipodi:cx="56.25"
           id="path3849"
           style="fill:#9c9291;stroke:none"
           sodipodi:type="arc" />
        <path
           sodipodi:type="arc"
           style="fill:#9c9291;stroke:none"
           id="path3851"
           sodipodi:cx="56.25"
           sodipodi:cy="725.96429"
           sodipodi:rx="1.0714285"
           sodipodi:ry="1.0714285"
           d="m 57.321429,725.96429 a 1.0714285,1.0714285 0 1 1 -2.142858,0 1.0714285,1.0714285 0 1 1 2.142858,0 z"
           transform="translate(1.5178573,16.696429)" />
      </g>
      <g
         transform="translate(29.732143,-7.5)"
         id="g3858">
        <path
           transform="translate(5.0000001,28.839286)"
           d="m 57.321429,725.96429 c 0,0.59174 -0.479695,1.07143 -1.071429,1.07143 -0.591734,0 -1.071429,-0.47969 -1.071429,-1.07143 0,-0.59173 0.479695,-1.07142 1.071429,-1.07142 0.591734,0 1.071429,0.47969 1.071429,1.07142 z"
           sodipodi:ry="1.0714285"
           sodipodi:rx="1.0714285"
           sodipodi:cy="725.96429"
           sodipodi:cx="56.25"
           id="path3860"
           style="fill:#9c9291;stroke:none"
           sodipodi:type="arc" />
        <path
           sodipodi:type="arc"
           style="fill:#9c9291;stroke:none"
           id="path3862"
           sodipodi:cx="56.25"
           sodipodi:cy="725.96429"
           sodipodi:rx="1.0714285"
           sodipodi:ry="1.0714285"
           d="m 57.321429,725.96429 c 0,0.59174 -0.479695,1.07143 -1.071429,1.07143 -0.591734,0 -1.071429,-0.47969 -1.071429,-1.07143 0,-0.59173 0.479695,-1.07142 1.071429,-1.07142 0.591734,0 1.071429,0.47969 1.071429,1.07142 z"
           transform="translate(-2.0535713,3.6607145)" />
        <path
           transform="translate(1.5178573,16.696429)"
           d="m 57.321429,725.96429 c 0,0.59174 -0.479695,1.07143 -1.071429,1.07143 -0.591734,0 -1.071429,-0.47969 -1.071429,-1.07143 0,-0.59173 0.479695,-1.07142 1.071429,-1.07142 0.591734,0 1.071429,0.47969 1.071429,1.07142 z"
           sodipodi:ry="1.0714285"
           sodipodi:rx="1.0714285"
           sodipodi:cy="725.96429"
           sodipodi:cx="56.25"
           id="path3864"
           style="fill:#9c9291;stroke:none"
           sodipodi:type="arc" />
      </g>
    </g>
    <g
       id="g4695"
       transform="matrix(0.94559365,-0.32535002,0.32535002,0.94559365,211.26624,8.4678319)">
      <g
         transform="matrix(-1,0,0,1,314.17859,0)"
         id="g3881">
        <rect
           transform="matrix(0.96487251,-0.26271857,0.26271857,0.96487251,0,0)"
           ry="5.3489408"
           rx="5.3489408"
           y="710.63153"
           x="-141.71892"
           height="41.946957"
           width="35.753448"
           id="rect3883"
           style="fill:none;stroke:#4c5156;stroke-width:1" />
        <path
           transform="translate(-0.89285715,-2.0535714)"
           d="m 57.321429,725.96429 c 0,0.59174 -0.479695,1.07143 -1.071429,1.07143 -0.591734,0 -1.071429,-0.47969 -1.071429,-1.07143 0,-0.59173 0.479695,-1.07142 1.071429,-1.07142 0.591734,0 1.071429,0.47969 1.071429,1.07142 z"
           sodipodi:ry="1.0714285"
           sodipodi:rx="1.0714285"
           sodipodi:cy="725.96429"
           sodipodi:cx="56.25"
           id="path3885"
           style="fill:#9c9291;stroke:none"
           sodipodi:type="arc" />
        <path
           sodipodi:type="arc"
           style="fill:#9c9291;stroke:none"
           id="path3887"
           sodipodi:cx="56.25"
           sodipodi:cy="725.96429"
           sodipodi:rx="1.0714285"
           sodipodi:ry="1.0714285"
           d="m 57.321429,725.96429 c 0,0.59174 -0.479695,1.07143 -1.071429,1.07143 -0.591734,0 -1.071429,-0.47969 -1.071429,-1.07143 0,-0.59173 0.479695,-1.07142 1.071429,-1.07142 0.591734,0 1.071429,0.47969 1.071429,1.07142 z"
           transform="translate(23.125,-9.0178571)" />
        <path
           transform="translate(9.1964285,33.839286)"
           d="m 57.321429,725.96429 c 0,0.59174 -0.479695,1.07143 -1.071429,1.07143 -0.591734,0 -1.071429,-0.47969 -1.071429,-1.07143 0,-0.59173 0.479695,-1.07142 1.071429,-1.07142 0.591734,0 1.071429,0.47969 1.071429,1.07142 z"
           sodipodi:ry="1.0714285"
           sodipodi:rx="1.0714285"
           sodipodi:cy="725.96429"
           sodipodi:cx="56.25"
           id="path3889"
           style="fill:#9c9291;stroke:none"
           sodipodi:type="arc" />
        <path
           sodipodi:type="arc"
           style="fill:#9c9291;stroke:none"
           id="path3891"
           sodipodi:cx="56.25"
           sodipodi:cy="725.96429"
           sodipodi:rx="1.0714285"
           sodipodi:ry="1.0714285"
           d="m 57.321429,725.96429 c 0,0.59174 -0.479695,1.07143 -1.071429,1.07143 -0.591734,0 -1.071429,-0.47969 -1.071429,-1.07143 0,-0.59173 0.479695,-1.07142 1.071429,-1.07142 0.591734,0 1.071429,0.47969 1.071429,1.07142 z"
           transform="translate(32.857143,27.589286)" />
        <g
           id="g3893">
          <path
             sodipodi:type="arc"
             style="fill:#9c9291;stroke:none"
             id="path3895"
             sodipodi:cx="56.25"
             sodipodi:cy="725.96429"
             sodipodi:rx="1.0714285"
             sodipodi:ry="1.0714285"
             d="m 57.321429,725.96429 c 0,0.59174 -0.479695,1.07143 -1.071429,1.07143 -0.591734,0 -1.071429,-0.47969 -1.071429,-1.07143 0,-0.59173 0.479695,-1.07142 1.071429,-1.07142 0.591734,0 1.071429,0.47969 1.071429,1.07142 z"
             transform="translate(5.0000001,28.839286)" />
          <path
             transform="translate(-2.0535713,3.6607145)"
             d="m 57.321429,725.96429 c 0,0.59174 -0.479695,1.07143 -1.071429,1.07143 -0.591734,0 -1.071429,-0.47969 -1.071429,-1.07143 0,-0.59173 0.479695,-1.07142 1.071429,-1.07142 0.591734,0 1.071429,0.47969 1.071429,1.07142 z"
             sodipodi:ry="1.0714285"
             sodipodi:rx="1.0714285"
             sodipodi:cy="725.96429"
             sodipodi:cx="56.25"
             id="path3897"
             style="fill:#9c9291;stroke:none"
             sodipodi:type="arc" />
          <path
             sodipodi:type="arc"
             style="fill:#9c9291;stroke:none"
             id="path3899"
             sodipodi:cx="56.25"
             sodipodi:cy="725.96429"
             sodipodi:rx="1.0714285"
             sodipodi:ry="1.0714285"
             d="m 57.321429,725.96429 c 0,0.59174 -0.479695,1.07143 -1.071429,1.07143 -0.591734,0 -1.071429,-0.47969 -1.071429,-1.07143 0,-0.59173 0.479695,-1.07142 1.071429,-1.07142 0.591734,0 1.071429,0.47969 1.071429,1.07142 z"
             transform="translate(1.5178573,16.696429)" />
        </g>
        <g
           transform="translate(29.732143,-7.5)"
           id="g3901">
          <path
             transform="translate(5.0000001,28.839286)"
             d="m 57.321429,725.96429 c 0,0.59174 -0.479695,1.07143 -1.071429,1.07143 -0.591734,0 -1.071429,-0.47969 -1.071429,-1.07143 0,-0.59173 0.479695,-1.07142 1.071429,-1.07142 0.591734,0 1.071429,0.47969 1.071429,1.07142 z"
             sodipodi:ry="1.0714285"
             sodipodi:rx="1.0714285"
             sodipodi:cy="725.96429"
             sodipodi:cx="56.25"
             id="path3903"
             style="fill:#9c9291;stroke:none"
             sodipodi:type="arc" />
          <path
             sodipodi:type="arc"
             style="fill:#9c9291;stroke:none"
             id="path3905"
             sodipodi:cx="56.25"
             sodipodi:cy="725.96429"
             sodipodi:rx="1.0714285"
             sodipodi:ry="1.0714285"
             d="m 57.321429,725.96429 c 0,0.59174 -0.479695,1.07143 -1.071429,1.07143 -0.591734,0 -1.071429,-0.47969 -1.071429,-1.07143 0,-0.59173 0.479695,-1.07142 1.071429,-1.07142 0.591734,0 1.071429,0.47969 1.071429,1.07142 z"
             transform="translate(-2.0535713,3.6607145)" />
          <path
             transform="translate(1.5178573,16.696429)"
             d="m 57.321429,725.96429 c 0,0.59174 -0.479695,1.07143 -1.071429,1.07143 -0.591734,0 -1.071429,-0.47969 -1.071429,-1.07143 0,-0.59173 0.479695,-1.07142 1.071429,-1.07142 0.591734,0 1.071429,0.47969 1.071429,1.07142 z"
             sodipodi:ry="1.0714285"
             sodipodi:rx="1.0714285"
             sodipodi:cy="725.96429"
             sodipodi:cx="56.25"
             id="path3907"
             style="fill:#9c9291;stroke:none"
             sodipodi:type="arc" />
        </g>
      </g>
    </g>
    <path
       sodipodi:type="arc"
       style="fill:none;fill-opacity:1;stroke:#010101"
       id="path4681"
       sodipodi:cx="107.32143"
       sodipodi:cy="217.39285"
       sodipodi:rx="51.07143"
       sodipodi:ry="51.07143"
       d="m 158.39286,217.39285 a 51.07143,51.07143 0 1 1 -102.142864,0 51.07143,51.07143 0 1 1 102.142864,0 z" />
    <path
       d="m 158.39286,217.39285 a 51.07143,51.07143 0 1 1 -102.142864,0 51.07143,51.07143 0 1 1 102.142864,0 z"
       sodipodi:ry="51.07143"
       sodipodi:rx="51.07143"
       sodipodi:cy="217.39285"
       sodipodi:cx="107.32143"
       id="path4683"
       style="fill:none;stroke:#010101;stroke-width:0.80941702"
       sodipodi:type="arc"
       transform="matrix(1.2354571,0,0,1.2354571,-25.269587,-51.186681)" />
    <path
       d="m 158.39286,217.39285 a 51.07143,51.07143 0 1 1 -102.142864,0 51.07143,51.07143 0 1 1 102.142864,0 z"
       sodipodi:ry="51.07143"
       sodipodi:rx="51.07143"
       sodipodi:cy="217.39285"
       sodipodi:cx="107.32143"
       id="path4685"
       style="fill:none;stroke:#010101;stroke-width:1.69443065"
       sodipodi:type="arc"
       transform="matrix(0.29508437,0,0,0.29508437,75.652551,153.24362)" />
    <path
       transform="matrix(0.19567875,0,0,0.19567875,86.320904,174.85369)"
       sodipodi:type="arc"
       style="fill:none;stroke:#010101;stroke-width:2.55520847"
       id="path4687"
       sodipodi:cx="107.32143"
       sodipodi:cy="217.39285"
       sodipodi:rx="51.07143"
       sodipodi:ry="51.07143"
       d="m 158.39286,217.39285 a 51.07143,51.07143 0 1 1 -102.142864,0 51.07143,51.07143 0 1 1 102.142864,0 z" />
    <path
       style="fill:none;stroke:#4c5156;stroke-width:1;stroke-linecap:round;stroke-linejoin:round;stroke-miterlimit:4;stroke-opacity:1;stroke-dasharray:none;stroke-dashoffset:0"
       d="m 517.55885,836.83822 c 136.01458,0 146.62327,0.61606 146.62327,-137.46762"
       id="path4689"
       inkscape:connector-curvature="0"
       sodipodi:nodetypes="cc" />
    <use
       x="0"
       y="0"
       xlink:href="#path4689"
       id="use4691"
       transform="matrix(1,0,0,-1,0,1398.7412)"
       width="1024"
       height="1024" />
    <rect
       style="fill:none;stroke:#4c5156;stroke-width:1;stroke-linecap:round;stroke-linejoin:round;stroke-miterlimit:4;stroke-opacity:1;stroke-dasharray:none;stroke-dashoffset:0"
       id="rect4693"
       width="120.97317"
       height="97.610352"
       x="663.38055"
       y="649.99036"
       rx="0"
       ry="0" />
    <g
       transform="matrix(0.94559365,0.32535002,0.32535002,-0.94559365,211.26624,1389.4049)"
       id="g4711">
      <g
         id="g4713"
         transform="matrix(-1,0,0,1,314.17859,0)">
        <rect
           style="fill:none;stroke:#4c5156;stroke-width:1"
           id="rect4715"
           width="35.753448"
           height="41.946957"
           x="-141.71892"
           y="710.63153"
           rx="5.3489408"
           ry="5.3489408"
           transform="matrix(0.96487251,-0.26271857,0.26271857,0.96487251,0,0)" />
        <path
           sodipodi:type="arc"
           style="fill:#9c9291;stroke:none"
           id="path4717"
           sodipodi:cx="56.25"
           sodipodi:cy="725.96429"
           sodipodi:rx="1.0714285"
           sodipodi:ry="1.0714285"
           d="m 57.321429,725.96429 c 0,0.59174 -0.479695,1.07143 -1.071429,1.07143 -0.591734,0 -1.071429,-0.47969 -1.071429,-1.07143 0,-0.59173 0.479695,-1.07142 1.071429,-1.07142 0.591734,0 1.071429,0.47969 1.071429,1.07142 z"
           transform="translate(-0.89285715,-2.0535714)" />
        <path
           transform="translate(23.125,-9.0178571)"
           d="m 57.321429,725.96429 c 0,0.59174 -0.479695,1.07143 -1.071429,1.07143 -0.591734,0 -1.071429,-0.47969 -1.071429,-1.07143 0,-0.59173 0.479695,-1.07142 1.071429,-1.07142 0.591734,0 1.071429,0.47969 1.071429,1.07142 z"
           sodipodi:ry="1.0714285"
           sodipodi:rx="1.0714285"
           sodipodi:cy="725.96429"
           sodipodi:cx="56.25"
           id="path4719"
           style="fill:#9c9291;stroke:none"
           sodipodi:type="arc" />
        <path
           sodipodi:type="arc"
           style="fill:#9c9291;stroke:none"
           id="path4721"
           sodipodi:cx="56.25"
           sodipodi:cy="725.96429"
           sodipodi:rx="1.0714285"
           sodipodi:ry="1.0714285"
           d="m 57.321429,725.96429 c 0,0.59174 -0.479695,1.07143 -1.071429,1.07143 -0.591734,0 -1.071429,-0.47969 -1.071429,-1.07143 0,-0.59173 0.479695,-1.07142 1.071429,-1.07142 0.591734,0 1.071429,0.47969 1.071429,1.07142 z"
           transform="translate(9.1964285,33.839286)" />
        <path
           transform="translate(32.857143,27.589286)"
           d="m 57.321429,725.96429 c 0,0.59174 -0.479695,1.07143 -1.071429,1.07143 -0.591734,0 -1.071429,-0.47969 -1.071429,-1.07143 0,-0.59173 0.479695,-1.07142 1.071429,-1.07142 0.591734,0 1.071429,0.47969 1.071429,1.07142 z"
           sodipodi:ry="1.0714285"
           sodipodi:rx="1.0714285"
           sodipodi:cy="725.96429"
           sodipodi:cx="56.25"
           id="path4723"
           style="fill:#9c9291;stroke:none"
           sodipodi:type="arc" />
        <g
           id="g4725">
          <path
             transform="translate(5.0000001,28.839286)"
             d="m 57.321429,725.96429 c 0,0.59174 -0.479695,1.07143 -1.071429,1.07143 -0.591734,0 -1.071429,-0.47969 -1.071429,-1.07143 0,-0.59173 0.479695,-1.07142 1.071429,-1.07142 0.591734,0 1.071429,0.47969 1.071429,1.07142 z"
             sodipodi:ry="1.0714285"
             sodipodi:rx="1.0714285"
             sodipodi:cy="725.96429"
             sodipodi:cx="56.25"
             id="path4727"
             style="fill:#9c9291;stroke:none"
             sodipodi:type="arc" />
          <path
             sodipodi:type="arc"
             style="fill:#9c9291;stroke:none"
             id="path4729"
             sodipodi:cx="56.25"
             sodipodi:cy="725.96429"
             sodipodi:rx="1.0714285"
             sodipodi:ry="1.0714285"
             d="m 57.321429,725.96429 c 0,0.59174 -0.479695,1.07143 -1.071429,1.07143 -0.591734,0 -1.071429,-0.47969 -1.071429,-1.07143 0,-0.59173 0.479695,-1.07142 1.071429,-1.07142 0.591734,0 1.071429,0.47969 1.071429,1.07142 z"
             transform="translate(-2.0535713,3.6607145)" />
          <path
             transform="translate(1.5178573,16.696429)"
             d="m 57.321429,725.96429 c 0,0.59174 -0.479695,1.07143 -1.071429,1.07143 -0.591734,0 -1.071429,-0.47969 -1.071429,-1.07143 0,-0.59173 0.479695,-1.07142 1.071429,-1.07142 0.591734,0 1.071429,0.47969 1.071429,1.07142 z"
             sodipodi:ry="1.0714285"
             sodipodi:rx="1.0714285"
             sodipodi:cy="725.96429"
             sodipodi:cx="56.25"
             id="path4731"
             style="fill:#9c9291;stroke:none"
             sodipodi:type="arc" />
        </g>
        <g
           id="g4733"
           transform="translate(29.732143,-7.5)">
          <path
             sodipodi:type="arc"
             style="fill:#9c9291;stroke:none"
             id="path4735"
             sodipodi:cx="56.25"
             sodipodi:cy="725.96429"
             sodipodi:rx="1.0714285"
             sodipodi:ry="1.0714285"
             d="m 57.321429,725.96429 c 0,0.59174 -0.479695,1.07143 -1.071429,1.07143 -0.591734,0 -1.071429,-0.47969 -1.071429,-1.07143 0,-0.59173 0.479695,-1.07142 1.071429,-1.07142 0.591734,0 1.071429,0.47969 1.071429,1.07142 z"
             transform="translate(5.0000001,28.839286)" />
          <path
             transform="translate(-2.0535713,3.6607145)"
             d="m 57.321429,725.96429 c 0,0.59174 -0.479695,1.07143 -1.071429,1.07143 -0.591734,0 -1.071429,-0.47969 -1.071429,-1.07143 0,-0.59173 0.479695,-1.07142 1.071429,-1.07142 0.591734,0 1.071429,0.47969 1.071429,1.07142 z"
             sodipodi:ry="1.0714285"
             sodipodi:rx="1.0714285"
             sodipodi:cy="725.96429"
             sodipodi:cx="56.25"
             id="path4737"
             style="fill:#9c9291;stroke:none"
             sodipodi:type="arc" />
          <path
             sodipodi:type="arc"
             style="fill:#9c9291;stroke:none"
             id="path4739"
             sodipodi:cx="56.25"
             sodipodi:cy="725.96429"
             sodipodi:rx="1.0714285"
             sodipodi:ry="1.0714285"
             d="m 57.321429,725.96429 c 0,0.59174 -0.479695,1.07143 -1.071429,1.07143 -0.591734,0 -1.071429,-0.47969 -1.071429,-1.07143 0,-0.59173 0.479695,-1.07142 1.071429,-1.07142 0.591734,0 1.071429,0.47969 1.071429,1.07142 z"
             transform="translate(1.5178573,16.696429)" />
        </g>
      </g>
    </g>
  </g>
</svg>
